<svg xmlns="http://www.w3.org/2000/svg" width="24" height="24" fill="currentColor" viewBox="0 0 24 24">
  <path fill-rule="evenodd" clip-rule="evenodd" d="M12 6C11.4366 6 10.8337 6.06204 10.2585 6.32944C9.6733 6.60147 9.15782 7.06653 8.73745 7.80218C8.31129 8.54797 8.13345 9.403 8.05641 10.2773C8.04992 10.3511 8.04412 10.4253 8.03894 10.5H7.11726C6.22324 10.5 5.52771 11.2771 5.62643 12.1656L6.40421 19.1656C6.48862 19.9253 7.13071 20.5 7.89504 20.5H16.105C16.8693 20.5 17.5114 19.9253 17.5958 19.1656L18.3736 12.1656C18.4723 11.2771 17.7767 10.5 16.8827 10.5H15.9611C15.9559 10.4253 15.9501 10.3511 15.9436 10.2773C15.8666 9.403 15.6887 8.54797 15.2625 7.80218C14.8422 7.06653 14.3267 6.60147 13.7415 6.32944C13.1663 6.06204 12.5634 6 12 6ZM14.999 11.5C15.0036 11.8265 15.0024 12.1622 15.0012 12.5074C15.0006 12.6692 15 12.834 15 13C15 13.2761 15.2239 13.5 15.5 13.5C15.7761 13.5 16 13.2761 16 13C16 12.843 16.0006 12.6851 16.0012 12.5268C16.0025 12.1845 16.0038 11.8405 15.9991 11.5H16.8827C17.1807 11.5 17.4126 11.759 17.3797 12.0552L16.6019 19.0552C16.5738 19.3084 16.3597 19.5 16.105 19.5H7.89504C7.64026 19.5 7.42623 19.3084 7.39809 19.0552L6.62032 12.0552C6.58741 11.759 6.81925 11.5 7.11726 11.5H8.00093C7.99619 11.8405 7.9975 12.1845 7.9988 12.5268C7.9994 12.6851 8 12.843 8 13C8 13.2761 8.22386 13.5 8.5 13.5C8.77614 13.5 9 13.2761 9 13C9 12.8337 8.99941 12.6695 8.99883 12.5074C8.99759 12.1622 8.99638 11.8264 9.00098 11.5H14.999ZM14.9585 10.5C14.9551 10.4548 14.9514 10.4099 14.9474 10.3651C14.8762 9.55688 14.7183 8.86529 14.3943 8.29832C14.0645 7.72122 13.6962 7.41116 13.32 7.23625C12.9337 7.05671 12.4974 7 12 7C11.5026 7 11.0663 7.05671 10.68 7.23625C10.3038 7.41115 9.93547 7.72122 9.6057 8.29832C9.28171 8.86529 9.12377 9.55688 9.05255 10.3651C9.04861 10.4099 9.04494 10.4548 9.04153 10.5H14.9585Z"/>
</svg>