<?xml version="1.0" ?><svg xmlns="http://www.w3.org/2000/svg" width="24" height="24" viewBox="0 0 24 24" fill="none"><path fill-rule="evenodd" clip-rule="evenodd" d="M10.2585 6.82944C10.8337 6.56204 11.4366 6.5 12 6.5C12.5634 6.5 13.1663 6.56204 13.7415 6.82944C14.3267 7.10147 14.8422 7.56653 15.2625 8.30218C15.6887 9.04797 15.8666 9.903 15.9436 10.7773C15.9501 10.8511 15.9559 10.9253 15.9611 11H16.847C17.7598 11 18.461 11.8085 18.3319 12.7121L17.995 15.0707C17.9559 15.3441 17.7027 15.534 17.4293 15.495C17.1559 15.4559 16.966 15.2027 17.005 14.9293L17.342 12.5707C17.385 12.2695 17.1513 12 16.847 12H15.9991C16.0038 12.3405 16.0025 12.6845 16.0012 13.0268C16.0006 13.1851 16 13.343 16 13.5C16 13.7761 15.7761 14 15.5 14C15.2239 14 15 13.7761 15 13.5C15 13.334 15.0006 13.1702 15.0012 13.0084C15.0024 12.6631 15.0036 12.3265 14.999 12H9.00098C8.99638 12.3264 8.99759 12.6622 8.99883 13.0074C8.99941 13.1695 9 13.3337 9 13.5C9 13.7761 8.77614 14 8.5 14C8.22386 14 8 13.7761 8 13.5C8 13.343 7.9994 13.1851 7.9988 13.0268C7.9975 12.6846 7.99619 12.3405 8.00093 12H7.11726C6.81925 12 6.58741 12.259 6.62032 12.5552L7.39809 19.5552C7.42623 19.8084 7.64026 20 7.89504 20H14C14.2761 20 14.5 20.2239 14.5 20.5C14.5 20.7761 14.2761 21 14 21H7.89504C7.13071 21 6.48862 20.4253 6.40421 19.6656L5.62643 12.6656C5.52771 11.7771 6.22324 11 7.11726 11H8.03894C8.04412 10.9253 8.04992 10.8511 8.05641 10.7773C8.13345 9.903 8.31129 9.04797 8.73745 8.30218C9.15782 7.56653 9.6733 7.10147 10.2585 6.82944ZM14.9474 10.8651C14.9514 10.9099 14.9551 10.9548 14.9585 11H9.04153C9.04494 10.9548 9.04861 10.9099 9.05255 10.8651C9.12377 10.0569 9.28171 9.36529 9.6057 8.79832C9.93547 8.22122 10.3038 7.91115 10.68 7.73625C11.0663 7.55671 11.5026 7.5 12 7.5C12.4974 7.5 12.9337 7.55671 13.32 7.73625C13.6962 7.91116 14.0645 8.22122 14.3943 8.79832C14.7183 9.36529 14.8762 10.0569 14.9474 10.8651ZM17.5 17C17.5 16.7239 17.2761 16.5 17 16.5C16.7239 16.5 16.5 16.7239 16.5 17V18.5H15C14.7239 18.5 14.5 18.7239 14.5 19C14.5 19.2761 14.7239 19.5 15 19.5H16.5V21C16.5 21.2761 16.7239 21.5 17 21.5C17.2761 21.5 17.5 21.2761 17.5 21V19.5H19C19.2761 19.5 19.5 19.2761 19.5 19C19.5 18.7239 19.2761 18.5 19 18.5H17.5V17Z" fill="black"/></svg>